<?xml version="1.0" encoding="UTF-8" standalone="no"?>
<svg width="221px" height="221px" viewBox="0 0 221 221" version="1.1" xmlns="http://www.w3.org/2000/svg" xmlns:xlink="http://www.w3.org/1999/xlink" xmlns:sketch="http://www.bohemiancoding.com/sketch/ns">
    <!-- Generator: Sketch 3.3.3 (12072) - http://www.bohemiancoding.com/sketch -->
    <title>Crossmark Mobile Icon</title>
    <desc>Created with Sketch.</desc>
    <defs></defs>
    <g id="Page-1" stroke="none" stroke-width="1" fill="none" fill-rule="evenodd" sketch:type="MSPage">
        <g id="customer-15" sketch:type="MSArtboardGroup" transform="translate(-661.000000, -1292.000000)">
            <g id="Crossmark-Mobile-Icon" sketch:type="MSLayerGroup" transform="translate(661.000000, 1292.000000)">
                <rect id="Rectangle-184-Copy-4" fill="#FFFFFF" sketch:type="MSShapeGroup" x="0" y="0" width="221" height="221" rx="40"></rect>
                <path d="M160.451808,112.52377 C156.981668,111.964987 152.916589,109.506343 152.916589,109.506343 C165.155599,107.662359 179.390338,101.984726 179.390338,87.5541593 C179.390338,76.5022328 169.901175,70.0562735 159.647945,70.5172693 C156.126071,70.6709346 145.864882,71.1299348 142.348977,71.7445959 L142.348977,140.512804 C142.348977,147.57542 141.429708,158.781012 149.229565,161.537008 L149.229565,162 L120,162 L120,161.537008 C127.805826,158.781012 126.731356,147.419759 126.731356,140.512804 L126.731356,82.6428571 C126.731356,75.5802411 127.805826,64.3766449 120,61.4609959 L120,61 L163.319051,61 C183.829491,61 195,71.7445959 195,85.7141672 C195,99.2207469 183.214655,109.813673 170.665243,112.729322 C170.665243,112.729322 166.273844,113.45574 160.451808,112.52377" id="Fill-3" fill="#005795" sketch:type="MSShapeGroup"></path>
                <path d="M72.1136152,112.729322 L57.1279288,74.0475795 L41.999143,112.729322 L38.0181974,124.088579 L30.0761811,145.729441 C26.8604197,154.324718 25.7911493,158.781012 33.1309556,161.537008 L33.1309556,162 L5,162 L5,161.537008 C13.8701749,157.090694 16.4638514,148.49342 19.8306621,139.744477 L45.3619787,75.735902 C47.4965447,70.2119344 50.4042448,63.7659751 43.066426,61.4609959 L43.066426,61 L67.220411,61 L99.0163011,139.744477 C102.528199,148.49342 105.286837,157.090694 114,161.537008 L114,162 L82.6592455,162 L82.6592455,161.537008 C90.1461262,158.162359 88.9238189,156.476032 84.7997739,145.729441 L76.5437339,124.088579 L72.1136152,112.729322" id="Fill-8" fill="#005795" sketch:type="MSShapeGroup"></path>
                <path d="M191.394227,139.168336 C199.02726,146.839619 208.877108,156.603069 218,161 L203.866307,161 C195.724006,161 190.657286,159.01711 186.051902,153.35852 C186.051902,153.35852 173.214347,141.143279 167.12909,136.414542 C160.512597,131.266577 144.621429,116.239923 111.914422,114.33452 C76.8468063,112.295998 44,131.377841 44,131.377841 C44,131.377841 65.1975438,102.019936 118.65274,104.106143 C161.445257,105.777096 191.394227,139.168336 191.394227,139.168336" id="Fill-10" fill="#BD2531" sketch:type="MSShapeGroup"></path>
            </g>
        </g>
    </g>
</svg>